/* XPM */
static char * MFColor_xpm[] = {
"16 12 5 1",
" 	c None",
".	c #000000",
"+	c #555555",
"@	c #D9D9D9",
"#	c #FFFFFF",
"............ . .",
"...+++@@#@#. . .",
"..+.+@@@@##. . .",
"...+++@@#@#. . .",
"..+.+@@@@##. . .",
"...+++@@#@#. . .",
"..+.+@@@@##. . .",
"...+++@@#@#. . .",
"..+.+@@@@##. . .",
"...+++@@#@#. . .",
"..+.+@@@@##. . .",
"............ . ."};
