/* XPM */
static char * SFImage_xpm[] = {
"16 12 3 1",
" 	c None",
".	c #000000",
"+	c #555555",
"............    ",
"..       ...    ",
".         ..    ",
".  + ...   .    ",
".  +...    .    ",
". .. +     .    ",
". .. +     .    ",
".    ++ .. .    ",
"..    +..  .    ",
"..   +..   .    ",
"...  +     .    ",
"............    "};
