/* XPM */
static char * SFNode_xpm[] = {
"16 12 5 1",
" 	c None",
".	c #000000",
"+	c #FFFFFF",
"@	c #D9D9D9",
"#	c #555555",
"............    ",
".          .    ",
".   ....   .    ",
".  .++@#.  .    ",
". .+++@##. .    ",
". .++@@##. .    ",
". .@@@###. .    ",
". .#####.. .    ",
".  .###..  .    ",
".   ....   .    ",
".          .    ",
"............    "};
