/* XPM */
static char * X3DNode_xpm[] = {
"10 12 5 1",
" 	c None",
".	c #000000",
"+	c #FFFFFF",
"@	c #D9D9D9",
"#	c #555555",
"          ",
"   ....   ",
" ........ ",
" ..++@#.. ",
"..+++@##..",
"..++@@##..",
"..@@@###..",
"..#####...",
" ..###... ",
" ........ ",
"   ....   ",
"          "};
