/* XPM */
static char * Proto_xpm[] = {
"16 12 6 1",
" 	c None",
".	c #000000",
"+	c #050505",
"@	c #060606",
"#	c #040404",
"$	c #0A0A0A",
"                ",
"        ..      ",
"       ...      ",
"      ..        ",
"      ..   ..   ",
"      ..   ..   ",
"      ..+@#.    ",
"     ...$$+     ",
"    ...         ",
"   ...          ",
"   ..           ",
"                "};
